<svg xmlns="http://www.w3.org/2000/svg" width="160" height="160" viewBox="0 0 32 32" shape-rendering="crispEdges" role="img" aria-label="Tabby sleep"><rect x="17" y="12" width="1" height="1" fill="#494C5D"/><rect x="18" y="12" width="1" height="1" fill="#494C5D"/><rect x="19" y="12" width="1" height="1" fill="#494C5D"/><rect x="20" y="12" width="1" height="1" fill="#494C5D"/><rect x="21" y="12" width="1" height="1" fill="#494C5D"/><rect x="22" y="12" width="1" height="1" fill="#494C5D"/><rect x="23" y="12" width="1" height="1" fill="#494C5D"/><rect x="6" y="13" width="1" height="1" fill="#494C5D"/><rect x="7" y="13" width="1" height="1" fill="#494C5D"/><rect x="11" y="13" width="1" height="1" fill="#494C5D"/><rect x="12" y="13" width="1" height="1" fill="#494C5D"/><rect x="15" y="13" width="1" height="1" fill="#494C5D"/><rect x="16" y="13" width="1" height="1" fill="#494C5D"/><rect x="17" y="13" width="1" height="1" fill="#FFFEFB"/><rect x="18" y="13" width="1" height="1" fill="#FFFEFB"/><rect x="19" y="13" width="1" height="1" fill="#FFFEFB"/><rect x="20" y="13" width="1" height="1" fill="#BCB9B0"/><rect x="21" y="13" width="1" height="1" fill="#BCB9B0"/><rect x="22" y="13" width="1" height="1" fill="#BCB9B0"/><rect x="23" y="13" width="1" height="1" fill="#BCB9B0"/><rect x="24" y="13" width="1" height="1" fill="#BCB9B0"/><rect x="25" y="13" width="1" height="1" fill="#494C5D"/><rect x="26" y="13" width="1" height="1" fill="#494C5D"/><rect x="5" y="14" width="1" height="1" fill="#494C5D"/><rect x="6" y="14" width="1" height="1" fill="#BCB9B0"/><rect x="7" y="14" width="1" height="1" fill="#BCB9B0"/><rect x="8" y="14" width="1" height="1" fill="#494C5D"/><rect x="10" y="14" width="1" height="1" fill="#494C5D"/><rect x="11" y="14" width="1" height="1" fill="#FFFEFB"/><rect x="12" y="14" width="1" height="1" fill="#FFFEFB"/><rect x="13" y="14" width="1" height="1" fill="#494C5D"/><rect x="14" y="14" width="1" height="1" fill="#494C5D"/><rect x="15" y="14" width="1" height="1" fill="#FFFEFB"/><rect x="16" y="14" width="1" height="1" fill="#FFFEFB"/><rect x="17" y="14" width="1" height="1" fill="#FFFEFB"/><rect x="18" y="14" width="1" height="1" fill="#FFFEFB"/><rect x="19" y="14" width="1" height="1" fill="#FFFEFB"/><rect x="20" y="14" width="1" height="1" fill="#BCB9B0"/><rect x="21" y="14" width="1" height="1" fill="#BCB9B0"/><rect x="22" y="14" width="1" height="1" fill="#BCB9B0"/><rect x="23" y="14" width="1" height="1" fill="#BCB9B0"/><rect x="24" y="14" width="1" height="1" fill="#BCB9B0"/><rect x="25" y="14" width="1" height="1" fill="#BCB9B0"/><rect x="26" y="14" width="1" height="1" fill="#BCB9B0"/><rect x="27" y="14" width="1" height="1" fill="#494C5D"/><rect x="5" y="15" width="1" height="1" fill="#494C5D"/><rect x="6" y="15" width="1" height="1" fill="#BCB9B0"/><rect x="7" y="15" width="1" height="1" fill="#BCB9B0"/><rect x="8" y="15" width="1" height="1" fill="#BCB9B0"/><rect x="9" y="15" width="1" height="1" fill="#494C5D"/><rect x="10" y="15" width="1" height="1" fill="#FFFEFB"/><rect x="11" y="15" width="1" height="1" fill="#FFFEFB"/><rect x="12" y="15" width="1" height="1" fill="#FFFEFB"/><rect x="13" y="15" width="1" height="1" fill="#494C5D"/><rect x="14" y="15" width="1" height="1" fill="#FFFEFB"/><rect x="15" y="15" width="1" height="1" fill="#FFFEFB"/><rect x="16" y="15" width="1" height="1" fill="#FFFEFB"/><rect x="17" y="15" width="1" height="1" fill="#FFFEFB"/><rect x="18" y="15" width="1" height="1" fill="#FFFEFB"/><rect x="19" y="15" width="1" height="1" fill="#FFFEFB"/><rect x="20" y="15" width="1" height="1" fill="#FFFEFB"/><rect x="21" y="15" width="1" height="1" fill="#BCB9B0"/><rect x="22" y="15" width="1" height="1" fill="#898D86"/><rect x="23" y="15" width="1" height="1" fill="#BCB9B0"/><rect x="24" y="15" width="1" height="1" fill="#BCB9B0"/><rect x="25" y="15" width="1" height="1" fill="#BCB9B0"/><rect x="26" y="15" width="1" height="1" fill="#BCB9B0"/><rect x="27" y="15" width="1" height="1" fill="#BCB9B0"/><rect x="28" y="15" width="1" height="1" fill="#494C5D"/><rect x="4" y="16" width="1" height="1" fill="#494C5D"/><rect x="5" y="16" width="1" height="1" fill="#BCB9B0"/><rect x="6" y="16" width="1" height="1" fill="#BCB9B0"/><rect x="7" y="16" width="1" height="1" fill="#BCB9B0"/><rect x="8" y="16" width="1" height="1" fill="#BCB9B0"/><rect x="9" y="16" width="1" height="1" fill="#BCB9B0"/><rect x="10" y="16" width="1" height="1" fill="#FFFEFB"/><rect x="11" y="16" width="1" height="1" fill="#FFFEFB"/><rect x="12" y="16" width="1" height="1" fill="#FFFEFB"/><rect x="13" y="16" width="1" height="1" fill="#FFFEFB"/><rect x="14" y="16" width="1" height="1" fill="#FFFEFB"/><rect x="15" y="16" width="1" height="1" fill="#FFFEFB"/><rect x="16" y="16" width="1" height="1" fill="#FFFEFB"/><rect x="17" y="16" width="1" height="1" fill="#FFFEFB"/><rect x="18" y="16" width="1" height="1" fill="#FFFEFB"/><rect x="19" y="16" width="1" height="1" fill="#FFFEFB"/><rect x="20" y="16" width="1" height="1" fill="#FFFEFB"/><rect x="21" y="16" width="1" height="1" fill="#BCB9B0"/><rect x="22" y="16" width="1" height="1" fill="#898D86"/><rect x="23" y="16" width="1" height="1" fill="#BCB9B0"/><rect x="24" y="16" width="1" height="1" fill="#BCB9B0"/><rect x="25" y="16" width="1" height="1" fill="#BCB9B0"/><rect x="26" y="16" width="1" height="1" fill="#BCB9B0"/><rect x="27" y="16" width="1" height="1" fill="#BCB9B0"/><rect x="28" y="16" width="1" height="1" fill="#494C5D"/><rect x="3" y="17" width="1" height="1" fill="#494C5D"/><rect x="4" y="17" width="1" height="1" fill="#BCB9B0"/><rect x="5" y="17" width="1" height="1" fill="#BCB9B0"/><rect x="6" y="17" width="1" height="1" fill="#BCB9B0"/><rect x="7" y="17" width="1" height="1" fill="#BCB9B0"/><rect x="8" y="17" width="1" height="1" fill="#FFFEFB"/><rect x="9" y="17" width="1" height="1" fill="#FFFEFB"/><rect x="10" y="17" width="1" height="1" fill="#FFFEFB"/><rect x="11" y="17" width="1" height="1" fill="#FFFEFB"/><rect x="12" y="17" width="1" height="1" fill="#FFFEFB"/><rect x="13" y="17" width="1" height="1" fill="#FFFEFB"/><rect x="14" y="17" width="1" height="1" fill="#FFFEFB"/><rect x="15" y="17" width="1" height="1" fill="#494C5D"/><rect x="16" y="17" width="1" height="1" fill="#FFFEFB"/><rect x="17" y="17" width="1" height="1" fill="#FFFEFB"/><rect x="18" y="17" width="1" height="1" fill="#FFFEFB"/><rect x="19" y="17" width="1" height="1" fill="#FFFEFB"/><rect x="20" y="17" width="1" height="1" fill="#FFFEFB"/><rect x="21" y="17" width="1" height="1" fill="#FFFEFB"/><rect x="22" y="17" width="1" height="1" fill="#BCB9B0"/><rect x="23" y="17" width="1" height="1" fill="#BCB9B0"/><rect x="24" y="17" width="1" height="1" fill="#BCB9B0"/><rect x="25" y="17" width="1" height="1" fill="#898D86"/><rect x="26" y="17" width="1" height="1" fill="#BCB9B0"/><rect x="27" y="17" width="1" height="1" fill="#BCB9B0"/><rect x="28" y="17" width="1" height="1" fill="#BCB9B0"/><rect x="29" y="17" width="1" height="1" fill="#494C5D"/><rect x="3" y="18" width="1" height="1" fill="#494C5D"/><rect x="4" y="18" width="1" height="1" fill="#FFFEFB"/><rect x="5" y="18" width="1" height="1" fill="#FFFEFB"/><rect x="6" y="18" width="1" height="1" fill="#FFFEFB"/><rect x="7" y="18" width="1" height="1" fill="#FFFEFB"/><rect x="8" y="18" width="1" height="1" fill="#FFFEFB"/><rect x="9" y="18" width="1" height="1" fill="#FFFEFB"/><rect x="10" y="18" width="1" height="1" fill="#FFFEFB"/><rect x="11" y="18" width="1" height="1" fill="#FFFEFB"/><rect x="12" y="18" width="1" height="1" fill="#FFFEFB"/><rect x="13" y="18" width="1" height="1" fill="#FFFEFB"/><rect x="14" y="18" width="1" height="1" fill="#FFFEFB"/><rect x="15" y="18" width="1" height="1" fill="#494C5D"/><rect x="16" y="18" width="1" height="1" fill="#FFFEFB"/><rect x="17" y="18" width="1" height="1" fill="#FFFEFB"/><rect x="18" y="18" width="1" height="1" fill="#FFFEFB"/><rect x="19" y="18" width="1" height="1" fill="#FFFEFB"/><rect x="20" y="18" width="1" height="1" fill="#FFFEFB"/><rect x="21" y="18" width="1" height="1" fill="#FFFEFB"/><rect x="22" y="18" width="1" height="1" fill="#BCB9B0"/><rect x="23" y="18" width="1" height="1" fill="#BCB9B0"/><rect x="24" y="18" width="1" height="1" fill="#BCB9B0"/><rect x="25" y="18" width="1" height="1" fill="#898D86"/><rect x="26" y="18" width="1" height="1" fill="#BCB9B0"/><rect x="27" y="18" width="1" height="1" fill="#BCB9B0"/><rect x="28" y="18" width="1" height="1" fill="#BCB9B0"/><rect x="29" y="18" width="1" height="1" fill="#494C5D"/><rect x="3" y="19" width="1" height="1" fill="#494C5D"/><rect x="4" y="19" width="1" height="1" fill="#FFFEFB"/><rect x="5" y="19" width="1" height="1" fill="#FFFEFB"/><rect x="6" y="19" width="1" height="1" fill="#FFFEFB"/><rect x="7" y="19" width="1" height="1" fill="#FFFEFB"/><rect x="8" y="19" width="1" height="1" fill="#FFFEFB"/><rect x="9" y="19" width="1" height="1" fill="#FFFEFB"/><rect x="10" y="19" width="1" height="1" fill="#FFFEFB"/><rect x="11" y="19" width="1" height="1" fill="#FFFEFB"/><rect x="12" y="19" width="1" height="1" fill="#FFFEFB"/><rect x="13" y="19" width="1" height="1" fill="#FFFEFB"/><rect x="14" y="19" width="1" height="1" fill="#FFFEFB"/><rect x="15" y="19" width="1" height="1" fill="#494C5D"/><rect x="16" y="19" width="1" height="1" fill="#FFFEFB"/><rect x="17" y="19" width="1" height="1" fill="#FFFEFB"/><rect x="18" y="19" width="1" height="1" fill="#FFFEFB"/><rect x="19" y="19" width="1" height="1" fill="#FFFEFB"/><rect x="20" y="19" width="1" height="1" fill="#FFFEFB"/><rect x="21" y="19" width="1" height="1" fill="#FFFEFB"/><rect x="22" y="19" width="1" height="1" fill="#BCB9B0"/><rect x="23" y="19" width="1" height="1" fill="#BCB9B0"/><rect x="24" y="19" width="1" height="1" fill="#BCB9B0"/><rect x="25" y="19" width="1" height="1" fill="#BCB9B0"/><rect x="26" y="19" width="1" height="1" fill="#BCB9B0"/><rect x="27" y="19" width="1" height="1" fill="#BCB9B0"/><rect x="28" y="19" width="1" height="1" fill="#BCB9B0"/><rect x="29" y="19" width="1" height="1" fill="#494C5D"/><rect x="3" y="20" width="1" height="1" fill="#494C5D"/><rect x="4" y="20" width="1" height="1" fill="#FFFEFB"/><rect x="5" y="20" width="1" height="1" fill="#FFFEFB"/><rect x="6" y="20" width="1" height="1" fill="#494C5D"/><rect x="7" y="20" width="1" height="1" fill="#FFFEFB"/><rect x="8" y="20" width="1" height="1" fill="#FFFEFB"/><rect x="9" y="20" width="1" height="1" fill="#FFFEFB"/><rect x="10" y="20" width="1" height="1" fill="#494C5D"/><rect x="11" y="20" width="1" height="1" fill="#FFFEFB"/><rect x="12" y="20" width="1" height="1" fill="#FFFEFB"/><rect x="13" y="20" width="1" height="1" fill="#FFFEFB"/><rect x="14" y="20" width="1" height="1" fill="#FFFEFB"/><rect x="15" y="20" width="1" height="1" fill="#494C5D"/><rect x="16" y="20" width="1" height="1" fill="#FFFEFB"/><rect x="17" y="20" width="1" height="1" fill="#FFFEFB"/><rect x="18" y="20" width="1" height="1" fill="#FFFEFB"/><rect x="19" y="20" width="1" height="1" fill="#FFFEFB"/><rect x="20" y="20" width="1" height="1" fill="#FFFEFB"/><rect x="21" y="20" width="1" height="1" fill="#FFFEFB"/><rect x="22" y="20" width="1" height="1" fill="#BCB9B0"/><rect x="23" y="20" width="1" height="1" fill="#BCB9B0"/><rect x="24" y="20" width="1" height="1" fill="#BCB9B0"/><rect x="25" y="20" width="1" height="1" fill="#BCB9B0"/><rect x="26" y="20" width="1" height="1" fill="#BCB9B0"/><rect x="27" y="20" width="1" height="1" fill="#BCB9B0"/><rect x="28" y="20" width="1" height="1" fill="#BCB9B0"/><rect x="29" y="20" width="1" height="1" fill="#494C5D"/><rect x="3" y="21" width="1" height="1" fill="#494C5D"/><rect x="4" y="21" width="1" height="1" fill="#FFFEFB"/><rect x="5" y="21" width="1" height="1" fill="#FFFEFB"/><rect x="6" y="21" width="1" height="1" fill="#FFFEFB"/><rect x="7" y="21" width="1" height="1" fill="#494C5D"/><rect x="8" y="21" width="1" height="1" fill="#494C5D"/><rect x="9" y="21" width="1" height="1" fill="#494C5D"/><rect x="10" y="21" width="1" height="1" fill="#494C5D"/><rect x="11" y="21" width="1" height="1" fill="#FFFEFB"/><rect x="12" y="21" width="1" height="1" fill="#FFFEFB"/><rect x="13" y="21" width="1" height="1" fill="#FFFEFB"/><rect x="14" y="21" width="1" height="1" fill="#FFFEFB"/><rect x="15" y="21" width="1" height="1" fill="#494C5D"/><rect x="16" y="21" width="1" height="1" fill="#FFFEFB"/><rect x="17" y="21" width="1" height="1" fill="#FFFEFB"/><rect x="18" y="21" width="1" height="1" fill="#FFFEFB"/><rect x="19" y="21" width="1" height="1" fill="#FFFEFB"/><rect x="20" y="21" width="1" height="1" fill="#FFFEFB"/><rect x="21" y="21" width="1" height="1" fill="#FFFEFB"/><rect x="22" y="21" width="1" height="1" fill="#FFFEFB"/><rect x="23" y="21" width="1" height="1" fill="#BCB9B0"/><rect x="24" y="21" width="1" height="1" fill="#BCB9B0"/><rect x="25" y="21" width="1" height="1" fill="#BCB9B0"/><rect x="26" y="21" width="1" height="1" fill="#BCB9B0"/><rect x="27" y="21" width="1" height="1" fill="#BCB9B0"/><rect x="28" y="21" width="1" height="1" fill="#BCB9B0"/><rect x="29" y="21" width="1" height="1" fill="#494C5D"/><rect x="3" y="22" width="1" height="1" fill="#494C5D"/><rect x="4" y="22" width="1" height="1" fill="#FFFEFB"/><rect x="5" y="22" width="1" height="1" fill="#FFFEFB"/><rect x="6" y="22" width="1" height="1" fill="#FFFEFB"/><rect x="7" y="22" width="1" height="1" fill="#FFFEFB"/><rect x="8" y="22" width="1" height="1" fill="#FFFEFB"/><rect x="9" y="22" width="1" height="1" fill="#EDBBB2"/><rect x="10" y="22" width="1" height="1" fill="#FFFEFB"/><rect x="11" y="22" width="1" height="1" fill="#FFFEFB"/><rect x="12" y="22" width="1" height="1" fill="#FFFEFB"/><rect x="13" y="22" width="1" height="1" fill="#FFFEFB"/><rect x="14" y="22" width="1" height="1" fill="#FFFEFB"/><rect x="15" y="22" width="1" height="1" fill="#494C5D"/><rect x="16" y="22" width="1" height="1" fill="#FFFEFB"/><rect x="17" y="22" width="1" height="1" fill="#FFFEFB"/><rect x="18" y="22" width="1" height="1" fill="#FFFEFB"/><rect x="19" y="22" width="1" height="1" fill="#FFFEFB"/><rect x="20" y="22" width="1" height="1" fill="#FFFEFB"/><rect x="21" y="22" width="1" height="1" fill="#FFFEFB"/><rect x="22" y="22" width="1" height="1" fill="#FFFEFB"/><rect x="23" y="22" width="1" height="1" fill="#BCB9B0"/><rect x="24" y="22" width="1" height="1" fill="#BCB9B0"/><rect x="25" y="22" width="1" height="1" fill="#BCB9B0"/><rect x="26" y="22" width="1" height="1" fill="#BCB9B0"/><rect x="27" y="22" width="1" height="1" fill="#BCB9B0"/><rect x="28" y="22" width="1" height="1" fill="#BCB9B0"/><rect x="29" y="22" width="1" height="1" fill="#494C5D"/><rect x="4" y="23" width="1" height="1" fill="#494C5D"/><rect x="5" y="23" width="1" height="1" fill="#FFFEFB"/><rect x="6" y="23" width="1" height="1" fill="#FFFEFB"/><rect x="7" y="23" width="1" height="1" fill="#FFFEFB"/><rect x="8" y="23" width="1" height="1" fill="#FFFEFB"/><rect x="9" y="23" width="1" height="1" fill="#FFFEFB"/><rect x="10" y="23" width="1" height="1" fill="#FFFEFB"/><rect x="11" y="23" width="1" height="1" fill="#FFFEFB"/><rect x="12" y="23" width="1" height="1" fill="#FFFEFB"/><rect x="13" y="23" width="1" height="1" fill="#FFFEFB"/><rect x="14" y="23" width="1" height="1" fill="#494C5D"/><rect x="15" y="23" width="1" height="1" fill="#494C5D"/><rect x="16" y="23" width="1" height="1" fill="#FFFEFB"/><rect x="17" y="23" width="1" height="1" fill="#FFFEFB"/><rect x="18" y="23" width="1" height="1" fill="#FFFEFB"/><rect x="19" y="23" width="1" height="1" fill="#FFFEFB"/><rect x="20" y="23" width="1" height="1" fill="#FFFEFB"/><rect x="21" y="23" width="1" height="1" fill="#FFFEFB"/><rect x="22" y="23" width="1" height="1" fill="#FFFEFB"/><rect x="23" y="23" width="1" height="1" fill="#FFFEFB"/><rect x="24" y="23" width="1" height="1" fill="#BCB9B0"/><rect x="25" y="23" width="1" height="1" fill="#BCB9B0"/><rect x="26" y="23" width="1" height="1" fill="#BCB9B0"/><rect x="27" y="23" width="1" height="1" fill="#BCB9B0"/><rect x="28" y="23" width="1" height="1" fill="#494C5D"/><rect x="5" y="24" width="1" height="1" fill="#494C5D"/><rect x="6" y="24" width="1" height="1" fill="#494C5D"/><rect x="7" y="24" width="1" height="1" fill="#FFFEFB"/><rect x="8" y="24" width="1" height="1" fill="#FFFEFB"/><rect x="9" y="24" width="1" height="1" fill="#FFFEFB"/><rect x="10" y="24" width="1" height="1" fill="#FFFEFB"/><rect x="11" y="24" width="1" height="1" fill="#494C5D"/><rect x="12" y="24" width="1" height="1" fill="#494C5D"/><rect x="13" y="24" width="1" height="1" fill="#494C5D"/><rect x="14" y="24" width="1" height="1" fill="#FFFEFB"/><rect x="15" y="24" width="1" height="1" fill="#FFFEFB"/><rect x="16" y="24" width="1" height="1" fill="#FFFEFB"/><rect x="17" y="24" width="1" height="1" fill="#494C5D"/><rect x="18" y="24" width="1" height="1" fill="#494C5D"/><rect x="19" y="24" width="1" height="1" fill="#494C5D"/><rect x="20" y="24" width="1" height="1" fill="#494C5D"/><rect x="21" y="24" width="1" height="1" fill="#494C5D"/><rect x="22" y="24" width="1" height="1" fill="#E5E5DE"/><rect x="23" y="24" width="1" height="1" fill="#E5E5DE"/><rect x="24" y="24" width="1" height="1" fill="#E5E5DE"/><rect x="25" y="24" width="1" height="1" fill="#E5E5DE"/><rect x="26" y="24" width="1" height="1" fill="#E5E5DE"/><rect x="27" y="24" width="1" height="1" fill="#494C5D"/><rect x="6" y="25" width="1" height="1" fill="#494C5D"/><rect x="7" y="25" width="1" height="1" fill="#494C5D"/><rect x="8" y="25" width="1" height="1" fill="#494C5D"/><rect x="9" y="25" width="1" height="1" fill="#494C5D"/><rect x="10" y="25" width="1" height="1" fill="#494C5D"/><rect x="11" y="25" width="1" height="1" fill="#494C5D"/><rect x="14" y="25" width="1" height="1" fill="#494C5D"/><rect x="15" y="25" width="1" height="1" fill="#494C5D"/><rect x="16" y="25" width="1" height="1" fill="#494C5D"/><rect x="17" y="25" width="1" height="1" fill="#494C5D"/><rect x="18" y="25" width="1" height="1" fill="#494C5D"/><rect x="19" y="25" width="1" height="1" fill="#494C5D"/><rect x="20" y="25" width="1" height="1" fill="#494C5D"/><rect x="21" y="25" width="1" height="1" fill="#494C5D"/><rect x="22" y="25" width="1" height="1" fill="#E5E5DE"/><rect x="23" y="25" width="1" height="1" fill="#E5E5DE"/><rect x="24" y="25" width="1" height="1" fill="#E5E5DE"/><rect x="25" y="25" width="1" height="1" fill="#E5E5DE"/><rect x="26" y="25" width="1" height="1" fill="#494C5D"/><rect x="22" y="26" width="1" height="1" fill="#494C5D"/><rect x="23" y="26" width="1" height="1" fill="#494C5D"/><rect x="24" y="26" width="1" height="1" fill="#494C5D"/><rect x="25" y="26" width="1" height="1" fill="#494C5D"/></svg>